<svg width="42" height="29" viewBox="0 0 42 29" fill="none" xmlns="http://www.w3.org/2000/svg">
<path d="M40.3053 14.5C40.3053 7.43884 34.6476 1.83158 27.6686 1.83158L14.3314 1.7146C7.35235 1.7146 1.69466 7.43884 1.69466 14.5C1.69469 21.5611 7.35237 27.2854 14.3314 27.2854L27.6957 27.1684C34.6747 27.1684 40.3053 21.5611 40.3053 14.5ZM42 14.5C42 22.508 35.5836 29 27.6686 29H14.3314C6.41644 29 2.92603e-05 22.508 0 14.5C0 6.49189 6.41642 0 14.3314 0H27.6686C35.5836 0 42 6.49189 42 14.5Z" fill="#818181"/>
<path d="M27.6528 14.5C27.6528 7.54918 22.0008 1.89383 14.9608 1.71878L14.6247 1.7146H1.7472V27.2854H14.6247C21.82 27.2853 27.6528 21.5611 27.6528 14.5ZM29.4 14.5C29.4 22.508 22.785 28.9999 14.6247 29H0V0H14.6247L15.0061 0.00460463C22.9901 0.20318 29.4 6.61707 29.4 14.5Z" fill="#818181"/>
<path d="M13.9977 1.38098V29H12.5977V1.38098H13.9977Z" fill="#818181"/>
<path d="M28 0V1.38095H14V0H28Z" fill="#818181"/>
<path d="M28 13.8095V15.1905H14V13.8095H28Z" fill="#818181"/>
<path d="M28 27.619V29H14V27.619H28Z" fill="#818181"/>
</svg>
